<?xml version="1.0" encoding="UTF-8" standalone="no"?>
<!DOCTYPE svg PUBLIC "-//W3C//DTD SVG 1.1//EN" "http://www.w3.org/Graphics/SVG/1.1/DTD/svg11.dtd">
<svg xmlns="http://www.w3.org/2000/svg" version="1.1" viewBox="0 0 746 691" width="746.0pt" height="691.0pt">
<path d="M 0.00 0.00 L 746.00 0.00 L 746.00 324.85 C 745.07 318.67 744.72 312.52 743.38 306.45 C 739.98 289.96 732.29 274.44 721.32 261.66 C 702.54 239.46 674.11 226.24 645.02 226.24 C 577.13 226.25 509.25 226.24 441.36 226.24 C 369.54 226.26 297.72 226.24 225.91 226.25 C 211.38 211.38 196.62 196.78 181.93 182.07 C 167.70 167.31 153.02 152.98 138.56 138.44 C 124.66 124.02 110.31 110.02 96.19 95.81 C 81.93 81.08 67.27 66.73 52.81 52.19 C 37.91 36.76 22.52 21.80 7.44 6.54 C 5.34 4.26 3.24 2.01 0.86 0.01 C 0.70 4.01 0.74 8.00 0.75 12.00 C 0.75 160.67 0.75 309.33 0.75 458.00 C 0.30 489.78 6.63 521.65 19.13 550.86 C 33.65 584.94 56.54 615.34 85.21 638.79 C 114.36 662.76 149.47 679.37 186.52 686.63 C 199.51 689.25 212.67 690.46 225.90 691.00 L 0.00 691.00 L 0.00 0.00 Z" fill="#ffffff" />
<path d="M 0.86 0.01 C 3.24 2.01 5.34 4.26 7.44 6.54 C 22.52 21.80 37.91 36.76 52.81 52.19 C 67.27 66.73 81.93 81.08 96.19 95.81 C 110.31 110.02 124.66 124.02 138.56 138.44 C 153.02 152.98 167.70 167.31 181.93 182.07 C 196.62 196.78 211.38 211.38 225.91 226.25 C 297.72 226.24 369.54 226.26 441.36 226.24 L 441.03 226.62 C 387.77 280.81 334.11 335.14 280.99 389.38 C 281.02 489.77 280.99 590.16 281.00 690.55 L 280.48 691.00 L 225.90 691.00 C 212.67 690.46 199.51 689.25 186.52 686.63 C 149.47 679.37 114.36 662.76 85.21 638.79 C 56.54 615.34 33.65 584.94 19.13 550.86 C 6.63 521.65 0.30 489.78 0.75 458.00 C 0.75 309.33 0.75 160.67 0.75 12.00 C 0.74 8.00 0.70 4.01 0.86 0.01 Z" fill="#fe6a61" />
<path d="M 441.36 226.24 C 509.25 226.24 577.13 226.25 645.02 226.24 C 674.11 226.24 702.54 239.46 721.32 261.66 C 732.29 274.44 739.98 289.96 743.38 306.45 C 744.72 312.52 745.07 318.67 746.00 324.85 L 746.00 532.25 L 745.55 532.26 C 737.70 531.83 729.86 532.03 722.00 532.00 C 628.34 531.99 534.65 532.02 441.00 531.98 C 441.01 430.24 440.97 328.35 441.03 226.62 L 441.36 226.24 Z" fill="#f9a0a0" />
<path d="M 441.03 226.62 C 440.97 328.35 441.01 430.24 441.00 531.98 C 427.96 544.62 415.12 557.44 402.31 570.31 C 391.74 580.40 381.57 590.90 371.19 601.19 C 358.71 613.03 346.93 625.61 334.43 637.43 C 316.73 655.28 298.76 672.77 281.00 690.55 C 280.99 590.16 281.02 489.77 280.99 389.38 C 334.11 335.14 387.77 280.81 441.03 226.62 Z" fill="#ffffff" />
<path d="M 441.00 531.98 C 534.65 532.02 628.34 531.99 722.00 532.00 C 729.86 532.03 737.70 531.83 745.55 532.26 C 720.60 559.04 695.76 586.04 670.86 612.88 C 643.68 641.77 609.49 663.96 572.04 677.02 C 547.52 685.69 521.76 690.16 495.79 691.00 L 280.48 691.00 L 281.00 690.55 C 298.76 672.77 316.73 655.28 334.43 637.43 C 346.93 625.61 358.71 613.03 371.19 601.19 C 381.57 590.90 391.74 580.40 402.31 570.31 C 415.12 557.44 427.96 544.62 441.00 531.98 Z" fill="#f78784" />
<path d="M 745.55 532.26 L 746.00 532.25 L 746.00 691.00 L 495.79 691.00 C 521.76 690.16 547.52 685.69 572.04 677.02 C 609.49 663.96 643.68 641.77 670.86 612.88 C 695.76 586.04 720.60 559.04 745.55 532.26 Z" fill="#ffffff" />
</svg>