<?xml version="1.0" standalone="no"?>
<!DOCTYPE svg PUBLIC "-//W3C//DTD SVG 20010904//EN"
 "http://www.w3.org/TR/2001/REC-SVG-20010904/DTD/svg10.dtd">
<svg version="1.0" xmlns="http://www.w3.org/2000/svg"
 width="370.000000pt" height="370.000000pt" viewBox="0 0 370.000000 370.000000"
 preserveAspectRatio="xMidYMid meet">
<metadata>
Created by potrace 1.14, written by Peter Selinger 2001-2017
</metadata>
<g transform="translate(0.000000,370.000000) scale(0.100000,-0.100000)"
fill="#000000" stroke="none">
<path d="M654 3419 c-107 -14 -199 -54 -258 -113 -90 -88 -99 -130 -111 -491
-3 -99 -8 -198 -11 -220 -22 -172 -103 -254 -261 -264 -10 -1 -13 -40 -13
-160 l0 -159 50 -7 c27 -4 68 -17 92 -28 103 -53 132 -144 143 -452 14 -359
23 -403 110 -488 88 -87 187 -118 385 -121 l115 -2 0 160 0 161 -64 2 c-89 4
-136 19 -165 53 -28 33 -33 66 -41 255 -17 389 -33 448 -155 565 l-69 66 49
37 c81 61 140 165 154 272 14 106 24 253 30 442 5 149 38 175 221 182 l41 1
-1 158 0 157 -95 1 c-52 0 -118 -3 -146 -7z"/>
<path d="M2858 3099 c-9 -6 -13 -107 -9 -256 l1 -32 143 2 142 2 2 143 c2 106
-1 142 -10 143 -77 4 -261 3 -269 -2z"/>
<path d="M3554 3078 c-2 -4 -5 -37 -6 -75 l-2 -68 77 -3 77 -3 0 76 c0 71 -1
75 -22 76 -102 4 -120 3 -124 -3z"/>
<path d="M710 2986 c-1 -11 -1 -1094 0 -1173 1 -65 3 -75 13 -62 7 10 62 70
122 134 61 64 114 124 120 134 5 9 10 157 10 358 0 188 3 344 7 348 10 10 169
7 227 -4 160 -32 245 -126 236 -263 -7 -91 -59 -156 -260 -323 -160 -132 -366
-340 -465 -469 -11 -14 -15 -53 -16 -152 -2 -115 0 -133 15 -136 26 -7 612 -1
666 6 150 21 243 57 309 122 36 35 86 123 86 152 0 25 60 131 101 178 76 89
220 177 323 199 110 22 138 25 311 26 l165 1 0 140 0 139 -190 -2 c-104 -1
-224 -8 -266 -15 -296 -52 -536 -222 -650 -461 -14 -31 -27 -61 -28 -67 -10
-56 -48 -113 -83 -127 -52 -20 -399 -44 -409 -28 -11 18 142 167 279 274 l89
68 57 -57 57 -56 24 32 c14 18 49 69 78 113 l53 80 -35 32 -36 33 35 62 c46
86 66 166 64 263 -5 218 -84 353 -254 435 -111 54 -196 66 -503 69 -138 1
-252 0 -252 -3z"/>
<path d="M3320 2710 c0 -88 2 -100 18 -101 57 -3 175 1 180 5 4 5 6 151 3 189
-1 4 -46 7 -101 7 l-100 0 0 -100z"/>
<path d="M2570 2613 l0 -160 59 -2 c76 -3 107 -8 143 -27 49 -25 55 -58 63
-327 7 -228 19 -307 62 -403 22 -49 103 -145 138 -164 l24 -13 -44 -35 c-45
-34 -97 -106 -127 -172 -36 -78 -42 -129 -53 -410 -8 -231 -18 -269 -76 -300
-19 -11 -96 -22 -156 -23 -31 0 -33 -3 -34 -36 -1 -40 -1 -249 0 -269 1 -10
25 -13 109 -11 284 7 429 94 472 282 13 58 20 165 24 383 4 151 8 191 26 245
37 108 94 163 183 175 24 4 50 10 57 14 9 6 12 48 12 155 -1 81 -3 150 -6 153
-3 2 -17 6 -30 7 -106 12 -182 70 -210 160 -16 50 -20 74 -31 198 l-7 67 -62
0 -63 0 0 100 1 100 63 0 63 0 -1 33 c-4 78 -23 175 -44 222 -20 44 -74 109
-116 140 -26 19 -87 44 -120 49 -75 13 -92 15 -203 21 l-116 7 0 -159z m481
18 c1 -3 2 -52 3 -108 l1 -103 -107 0 c-79 0 -108 3 -109 13 -1 18 -1 169 0
188 1 13 17 16 106 16 58 0 106 -3 106 -6z"/>
<path d="M2870 2529 l0 -77 75 -1 c44 -1 75 3 76 9 0 5 1 30 1 55 0 100 7 92
-77 91 l-75 -1 0 -76z"/>
<path d="M3320 2278 l0 -78 75 0 c64 0 75 2 76 18 4 95 3 115 -2 124 -3 5 -38
10 -78 11 l-71 2 0 -77z"/>
<path d="M3088 2231 c-2 -14 -1 -41 1 -58 3 -33 3 -33 60 -33 l56 0 -1 50 c-1
28 -5 54 -8 58 -4 3 -29 7 -56 8 -46 1 -49 -1 -52 -25z"/>
<path d="M2409 1950 c0 -14 -1 -238 -1 -499 l0 -473 -87 5 c-107 8 -215 38
-303 84 -176 92 -260 229 -267 433 l-1 25 -26 -29 c-37 -39 -108 -83 -176
-107 -63 -23 -60 -15 -33 -121 46 -180 190 -351 372 -442 56 -28 180 -71 228
-80 17 -3 43 -8 58 -12 60 -13 88 -15 295 -18 l212 -4 0 631 0 632 -135 0
-135 1 -1 -26z"/>
</g>
</svg>
